<svg width="116" height="55" viewBox="0 0 116 55" fill="none" xmlns="http://www.w3.org/2000/svg">
<g clip-path="url(#clip0_832_388)">
<path fill-rule="evenodd" clip-rule="evenodd" d="M13.043 2.95603V5.41206H18.4356H23.8282L23.8283 5.54554C23.8283 5.61898 23.8323 10.4683 23.8372 16.3218L23.846 26.9646L26.3109 26.9738L28.7758 26.9829V16.1975V5.41206H34.1506H39.5254V2.95603V0.5H26.2842H13.043V2.95603ZM42.4086 2.95603V5.41206H47.8012H53.1938V16.1975V26.9829L55.6587 26.9738L58.1237 26.9646L58.1325 16.2328C58.1373 10.3304 58.1413 5.48105 58.1414 5.45656C58.1414 5.42118 59.2402 5.41206 63.5162 5.41206H68.891V2.95603V0.5H55.6498H42.4086V2.95603ZM77.4719 0.556488C75.3764 0.861499 73.602 2.5563 73.1709 4.66458C73.1131 4.94713 73.109 5.54853 73.109 13.759V22.5509L73.192 22.9218C73.3014 23.4105 73.4132 23.7166 73.6492 24.1739C74.3914 25.612 75.8447 26.6797 77.3982 26.9281C77.6953 26.9756 79.0575 26.9822 88.6194 26.9823L99.5025 26.9824V21.8254V16.6683L99.2266 16.6455C99.0749 16.6329 98.7784 16.6048 98.5677 16.5832C98.1037 16.5356 97.7094 16.5565 97.5543 16.6371C97.4052 16.7144 97.3459 16.8364 97.3154 17.128C97.2935 17.3378 97.3007 17.3843 97.3792 17.5392C97.4279 17.6353 97.4921 17.8074 97.522 17.9217C97.5755 18.1267 97.575 18.1311 97.4894 18.2433C97.3795 18.3875 97.1285 18.5989 96.8721 18.7634C96.7624 18.8337 96.5365 19.0001 96.3701 19.1331C95.8975 19.5109 95.2848 19.9072 94.7829 20.1597C94.2614 20.4221 94.1662 20.5071 93.8493 20.9933C93.5557 21.4437 93.4617 21.6492 93.3996 21.9766C93.3273 22.3574 93.3744 22.6958 93.5565 23.1026C93.6309 23.269 93.7282 23.5653 93.7727 23.7611C93.8172 23.9569 93.9006 24.2115 93.9582 24.327C94.2241 24.8605 94.4145 25.5107 94.3638 25.7125C94.3509 25.7638 94.3076 25.8233 94.2675 25.8448C94.17 25.8969 93.8828 25.7608 93.3624 25.4156C92.7074 24.9811 92.3105 24.8468 91.6826 24.8468C90.941 24.8468 90.5141 24.5837 89.9767 23.7956C89.5847 23.2207 89.5072 23.0207 89.4651 22.4747C89.4164 21.8434 89.2758 21.5942 88.9385 21.5408C88.8391 21.5251 88.7171 21.4856 88.6673 21.453C88.575 21.3925 87.8186 20.2706 87.6701 19.9739C87.625 19.8838 87.5599 19.722 87.5255 19.6143C87.4106 19.2553 87.1481 18.6401 86.9259 18.2093C86.5692 17.5175 86.2814 17.2641 85.6732 17.1065C85.4498 17.0486 85.3714 16.9828 85.3714 16.8533C85.3714 16.6626 85.1493 16.6281 84.5665 16.7283C84.3294 16.769 84.0325 16.8024 83.9066 16.8024C83.6833 16.8024 83.6708 16.8074 83.3944 17.0115C83.2386 17.1265 83.0756 17.2591 83.0322 17.3061C82.9167 17.4315 82.8412 17.6726 82.8181 17.99C82.7951 18.3075 82.8521 18.2431 82.244 18.638C81.8119 18.9185 81.7287 18.9068 81.2716 18.5004C80.8411 18.1177 80.3307 17.7359 80.0856 17.6133C79.9681 17.5546 79.8357 17.4731 79.7912 17.4323C79.6726 17.3234 79.5708 16.9473 79.534 16.4822C79.456 15.4951 79.2672 15.2123 78.1101 14.3497C77.6251 13.9882 77.3087 13.7209 77.06 13.4626C76.8642 13.2593 76.5717 12.989 76.4098 12.862C76.0815 12.6042 76.0456 12.5558 76.0456 12.3717C76.0456 12.2968 76.0142 12.2009 75.9702 12.1414C75.8317 11.9541 75.8582 11.9494 76.9139 11.9759C78.8951 12.0255 81.6709 12.1022 82.2289 12.1228L82.8061 12.144L82.823 12.0616C82.8324 12.0163 82.8808 10.4336 82.9307 8.5444C82.9805 6.65521 83.0291 4.94133 83.0387 4.73577C83.0483 4.53021 83.0668 3.90225 83.0799 3.34031L83.1038 2.31864L83.677 2.30729C85.1707 2.27767 88.2764 2.28226 88.3257 2.31416C88.3723 2.34423 88.3783 2.60916 88.3728 4.38388C88.3683 5.84351 88.3552 6.42609 88.3266 6.44378C88.2801 6.4725 88.619 6.80019 88.9673 7.06348C89.479 7.45025 90.1275 7.62869 90.586 7.50884C90.8608 7.43697 90.8879 7.43309 90.9696 7.45356C91.0149 7.46495 91.1553 7.54152 91.2817 7.62371C91.509 7.77157 91.5156 7.77335 91.8981 7.78979C92.1499 7.80058 92.3525 7.79011 92.4791 7.75971C92.6684 7.71433 92.6795 7.71596 92.8934 7.82179C93.178 7.96249 93.4707 8.18425 93.5861 8.34645C93.7269 8.54432 93.719 8.54418 94.7932 8.36482C95.0458 8.32264 95.3133 8.18012 95.5371 7.96844C95.7218 7.79381 95.7286 7.79089 96.0206 7.76249C96.1835 7.74665 96.3782 7.7071 96.4533 7.67457C96.5671 7.62527 96.6115 7.62246 96.7202 7.6577C97.0314 7.75854 97.3519 7.9547 97.6153 8.20561L97.8878 8.46523L98.382 8.49168C98.8365 8.51603 98.8958 8.51183 99.1206 8.43943C99.2551 8.39614 99.3864 8.36891 99.4124 8.37891C99.4403 8.38959 99.4682 8.36511 99.4802 8.31947C99.4914 8.27676 99.5011 6.49994 99.5018 4.37092L99.503 0.5L88.6553 0.503808C79.6637 0.507012 77.7501 0.516017 77.4719 0.556488ZM1.83067 32.1259V33.0335H3.80618H5.78168V37.0029V40.9723L6.69824 40.9629L7.61481 40.9533L7.62385 36.9934L7.63292 33.0335H9.59045H11.548V32.1259V31.2182H6.68934H1.83067V32.1259ZM15.859 31.2745C15.2419 31.4404 14.7097 31.9702 14.5236 32.604C14.473 32.776 14.4668 33.2474 14.4668 36.8848V40.9723L15.3655 40.9629L16.2643 40.9533L16.2736 39.3249L16.2828 37.6964H19.3258H22.3688V39.3338V40.9711H23.2765H24.1841V36.9208C24.1841 32.5042 24.1922 32.69 23.9812 32.2504C23.8559 31.9894 23.412 31.5463 23.1472 31.4179C22.7239 31.2127 22.8437 31.2189 19.3077 31.221C16.58 31.2226 16.0196 31.2313 15.859 31.2745ZM27.6012 36.0947V40.9711H28.5089H29.4165V38.9956V37.0201H30.5468H31.6771L32.3543 37.8299C32.7268 38.2753 33.4706 39.1643 34.0073 39.8054L34.983 40.9711H35.9728H36.9626V40.7075V40.4438L36.3696 39.7375C36.0435 39.3491 35.5029 38.7044 35.1683 38.3049C34.8337 37.9054 34.2832 37.2495 33.9449 36.8472C33.6066 36.4449 33.3377 36.0954 33.3473 36.0705C33.3569 36.0455 34.1742 35.056 35.1637 33.8715L36.9626 31.718V31.4681V31.2182H35.9687H34.9749L33.7752 32.6509C33.1153 33.4389 32.3733 34.3274 32.1261 34.6255L31.6768 35.1674L30.5467 35.1683L29.4165 35.1692V33.1937V31.2182H28.5089H27.6012V36.0947ZM40.2373 36.0948V40.9714L44.7134 40.9624L49.1894 40.9533L49.1989 40.0546L49.2084 39.1558H45.6305H42.0527V38.088V37.0201H44.918H47.7834V36.0947V35.1692H44.918H42.0527V34.1015V33.0339L45.621 33.0248L49.1894 33.0157L49.1989 32.117L49.2084 31.2182H44.7229H40.2373V36.0948ZM53.7724 31.2732C53.2587 31.4115 52.7597 31.8391 52.5323 32.336C52.3926 32.6411 52.3751 32.8412 52.3751 34.1343C52.3751 35.1271 52.3858 35.4087 52.4296 35.5771C52.6093 36.2668 53.2367 36.8577 53.9211 36.9818C54.0611 37.0072 55.1547 37.0201 57.162 37.0201C59.471 37.0201 60.2018 37.0303 60.2344 37.0628C60.2656 37.094 60.2771 37.3684 60.2771 38.0748C60.2771 38.9084 60.2693 39.0518 60.2212 39.0999C60.1712 39.1498 59.8517 39.1558 57.2381 39.1558C54.9517 39.1558 54.2978 39.1461 54.2514 39.1113C54.2039 39.0757 54.1902 38.9928 54.1824 38.6931L54.1726 38.3193H53.2828H52.3929L52.382 38.7821C52.3693 39.3225 52.4112 39.5844 52.5613 39.9033C52.6971 40.1918 53.1212 40.6239 53.4074 40.7653C53.8345 40.9765 53.7355 40.9711 57.2338 40.9711C60.7321 40.9711 60.633 40.9765 61.0602 40.7653C61.3256 40.6342 61.7684 40.1923 61.8931 39.9342C62.0823 39.5424 62.0916 39.4553 62.092 38.0626C62.0925 36.8083 62.0902 36.7666 62.009 36.5108C61.8099 35.8838 61.2871 35.3898 60.6462 35.2229C60.4703 35.177 59.9915 35.1692 57.3716 35.1692C55.6839 35.1692 54.2777 35.1595 54.2468 35.1476C54.1972 35.1286 54.1904 35.0047 54.1904 34.1225C54.1904 33.3894 54.2019 33.1075 54.2332 33.0762C54.295 33.0144 60.1726 33.0144 60.2344 33.0762C60.2621 33.1039 60.2771 33.2479 60.2771 33.4856V33.8522H61.1848H62.0925V33.3436C62.0925 32.5451 61.9851 32.2508 61.5237 31.7837C61.2385 31.4951 61.0128 31.3581 60.6796 31.2713C60.3841 31.1944 54.0588 31.196 53.7724 31.2732ZM70.9555 32.1259V33.0335H72.931H74.9065V37.0023V40.9711H75.8142H76.7219V37.0023V33.0335H78.6974H80.6729V32.1259V31.2182H75.8142H70.9555V32.1259ZM83.2713 31.2341C83.2713 31.2428 83.6331 32.2479 84.0754 33.4676C84.9734 35.9441 86.7532 40.8575 86.7777 40.9274C86.7899 40.9624 86.9557 40.9704 87.5104 40.963L88.2274 40.9533L89.4549 37.5719C90.1301 35.712 90.6928 34.1793 90.7054 34.1658C90.7257 34.1441 91.161 35.3186 92.789 39.787L93.22 40.97L93.9351 40.9705L94.6501 40.9711L94.9802 40.0546C95.2615 39.2732 96.9944 34.4909 97.8984 32.0013L98.1762 31.236L97.2311 31.2265C96.7112 31.2213 96.2738 31.2293 96.259 31.2443C96.2441 31.2593 95.7179 32.6884 95.0895 34.4201C94.4612 36.1518 93.943 37.5726 93.9382 37.5774C93.9334 37.5823 93.4077 36.1574 92.7702 34.4111L91.6109 31.236L90.7242 31.2265L89.8375 31.217L88.8607 33.8961C88.3234 35.3696 87.8035 36.7955 87.7054 37.0646C87.6074 37.3338 87.5186 37.554 87.5082 37.5539C87.4978 37.5538 87.3596 37.1974 87.2012 36.7619C87.0427 36.3264 86.5231 34.9009 86.0465 33.5941L85.1799 31.2182H84.2256C83.7007 31.2182 83.2713 31.2254 83.2713 31.2341ZM102.35 31.2853C101.782 31.4689 101.315 31.8946 101.11 32.4145C100.966 32.7794 100.957 33.0173 100.969 36.2726C100.98 39.1752 100.985 39.4005 101.046 39.5829C101.244 40.1786 101.672 40.6394 102.246 40.8745L102.439 40.9533L105.73 40.9631C108.02 40.97 109.079 40.961 109.21 40.9338C109.895 40.7916 110.531 40.147 110.676 39.4477C110.702 39.3189 110.715 38.2515 110.714 36.084C110.714 32.5874 110.718 32.6672 110.493 32.236C110.356 31.9742 109.949 31.5593 109.697 31.424C109.304 31.213 109.399 31.218 105.822 31.2201C102.782 31.2219 102.532 31.2266 102.35 31.2853ZM16.3248 33.0762C16.2931 33.108 16.2821 33.4733 16.2821 34.5V35.8811H19.3255H22.3688V34.5132C22.3688 33.3172 22.3618 33.1384 22.3129 33.0895C22.2629 33.0395 21.9418 33.0335 19.3123 33.0335C17.0694 33.0335 16.3574 33.0437 16.3248 33.0762ZM102.833 33.0895C102.783 33.1394 102.777 33.461 102.777 36.0947C102.777 38.7284 102.783 39.0499 102.833 39.0999C102.883 39.1498 103.202 39.1558 105.815 39.1558C108.406 39.1558 108.75 39.1495 108.82 39.1004L108.899 39.045V36.0982C108.899 33.2885 108.896 33.1486 108.834 33.0924C108.775 33.0386 108.515 33.0335 105.829 33.0335C103.204 33.0335 102.883 33.0395 102.833 33.0895ZM2.88947 42.8963C2.51537 42.9845 2.14141 43.2893 1.97611 43.6407L1.88406 43.8365V46.2392V48.6418L1.97148 48.8198C2.08357 49.048 2.40335 49.3677 2.63155 49.4798L2.80952 49.5673L5.68379 49.5772L8.55806 49.5871V48.9638V48.3406L5.92096 48.331L3.28386 48.3214L3.19797 48.2216L3.11208 48.1217V46.2178V44.3138L3.19946 44.2265L3.28681 44.1391H5.92246H8.55806V43.4984V42.8577L5.79058 42.8612C4.26848 42.8632 2.96297 42.879 2.88947 42.8963ZM12.6882 42.9146C12.324 43.0125 12.0271 43.2632 11.8282 43.6407L11.7438 43.8009L11.7339 46.1729C11.7242 48.512 11.7251 48.5478 11.7992 48.7459C11.8979 49.0096 12.1886 49.3239 12.4618 49.4623L12.6693 49.5673H15.0719H17.4745L17.6703 49.4709C18.0713 49.2734 18.3512 48.8892 18.4211 48.4399C18.4433 48.2974 18.4527 47.3882 18.4456 46.0585C18.4348 44.0187 18.4306 43.8989 18.3645 43.7374C18.2018 43.3402 17.8356 43.013 17.4404 42.9119C17.1317 42.833 12.9833 42.8353 12.6882 42.9146ZM21.6569 46.2214V49.5851H22.2798H22.9027V47.1564V44.7277L23.0056 44.8338C23.0621 44.8922 23.8808 45.861 24.8249 46.9866C25.7689 48.1123 26.614 49.1183 26.7029 49.2222C26.7917 49.3261 26.8952 49.4502 26.9328 49.4981C27.0012 49.585 27.0018 49.5851 27.6928 49.5851H28.3843V46.2205V42.856L27.7525 42.8657L27.1207 42.8755L27.1029 45.2865L27.0851 47.6975L25.1986 45.4493C24.161 44.2129 23.248 43.1251 23.1697 43.0321L23.0273 42.8629L22.3421 42.8603L21.6569 42.8577V46.2214ZM32.5981 42.9073C32.2207 43.0002 31.8775 43.2919 31.7005 43.6701C31.6081 43.8675 31.6057 43.8909 31.5936 44.7014C31.5797 45.6262 31.6113 45.9105 31.758 46.18C31.8848 46.4129 32.1845 46.679 32.4333 46.7794L32.6379 46.8621L34.8358 46.8725L37.0338 46.8829V47.5895C37.0338 48.2009 37.0262 48.2989 36.9775 48.3176C36.89 48.3512 32.9643 48.342 32.9108 48.3081C32.8798 48.2884 32.8612 48.1928 32.8574 48.0327L32.8514 47.7875L32.2146 47.7778L31.5778 47.768L31.5972 48.1693C31.6082 48.3988 31.6408 48.637 31.6731 48.7257C31.8102 49.1013 32.2207 49.4685 32.5937 49.5493C32.7251 49.5778 33.4538 49.5864 35.0591 49.5785L37.338 49.5673L37.5729 49.4516C37.8514 49.3144 38.0701 49.091 38.2027 48.8082L38.2974 48.6062V47.591V46.5758L38.1817 46.3408C38.0446 46.0622 37.8212 45.8435 37.5384 45.7109L37.3364 45.6162L35.1302 45.6063C33.9169 45.6008 32.9112 45.5835 32.8955 45.5678C32.8567 45.5289 32.8568 44.2084 32.8957 44.1695C32.9129 44.1524 33.8417 44.1426 34.9714 44.1477L37.016 44.1569L37.0338 44.4238L37.0516 44.6908L37.6871 44.7005L38.3226 44.7103L38.31 44.2734C38.2988 43.8837 38.2869 43.815 38.2 43.6382C38.0672 43.3677 37.812 43.1182 37.5321 42.9853L37.3008 42.8755L35.0405 42.8689C33.3247 42.864 32.7364 42.8733 32.5981 42.9073ZM41.1984 43.4984V44.1391H42.5688H43.9392V46.8621V49.5851H44.5799H45.2206V46.8621V44.1391H46.5732H47.9258V43.4984V42.8577H44.5621H41.1984V43.4984ZM50.8311 42.9125C50.8025 42.9871 50.802 49.4543 50.8306 49.5287C50.8491 49.5771 50.9395 49.5851 51.4713 49.5851H52.0904V48.446V47.307H53.1723H54.2541L55.2071 48.446L56.1601 49.5851H56.8482H57.5363V49.4124V49.2398L56.7368 48.3001C56.2971 47.7832 55.9367 47.3507 55.9359 47.339C55.9352 47.3272 56.068 47.3082 56.231 47.2966C56.8431 47.2535 57.268 46.9536 57.4656 46.4255C57.5363 46.2367 57.5393 46.1704 57.5292 45.0319L57.5185 43.8365L57.4193 43.6344C57.2898 43.3708 56.9647 43.0685 56.6922 42.9586L56.4863 42.8755L53.6698 42.8652C51.0995 42.8557 50.8513 42.8599 50.8311 42.9125ZM60.7122 45.7319L60.7221 48.6062L60.815 48.802C60.9527 49.0923 61.1684 49.3146 61.444 49.4503L61.6816 49.5673L63.9931 49.5769C66.5521 49.5876 66.5126 49.5906 66.849 49.3598C67.0833 49.1991 67.2759 48.9377 67.3611 48.6648C67.429 48.4472 67.4317 48.331 67.4317 45.6481V42.8577H66.791H66.1502V45.5557C66.1502 47.6068 66.14 48.2641 66.1075 48.2965C66.0753 48.3287 65.5726 48.3392 64.0634 48.3392C62.2914 48.3392 62.0555 48.3328 62.006 48.2833C61.9562 48.2335 61.9501 47.9358 61.9501 45.5425V42.8577H61.3262H60.7022L60.7122 45.7319ZM71.64 42.9127C71.3711 42.9853 71.2508 43.056 71.0449 43.2625C70.8377 43.4704 70.7235 43.6831 70.6713 43.9583C70.6208 44.2247 70.623 48.2242 70.6739 48.5018C70.7481 48.9073 71.0368 49.2831 71.4183 49.4709L71.614 49.5673L74.4883 49.577L77.3626 49.5867V48.963V48.3392L74.8087 48.339C73.1532 48.3389 72.2079 48.3259 72.1217 48.3019C72.0485 48.2816 71.9724 48.2347 71.9526 48.1976C71.9296 48.1547 71.9166 47.4428 71.9166 46.2277C71.9166 44.4074 71.9195 44.3213 71.9846 44.2409L72.0527 44.1569L74.6987 44.1391L77.3448 44.1213V43.4984V42.8755L74.5862 42.8688C72.2976 42.8632 71.7956 42.8708 71.64 42.9127ZM80.1903 42.9035C80.1806 42.9287 80.1772 43.2131 80.1825 43.5353L80.1923 44.1213L81.5538 44.1306L82.9153 44.1399V46.8625V49.5851H83.556H84.1967V46.8621V44.1391H85.5493H86.9019V43.4984V42.8577H83.5549C80.857 42.8577 80.2045 42.8666 80.1903 42.9035ZM89.7021 42.8814C89.689 42.8944 89.6783 44.4081 89.6783 46.2451V49.5851H90.3012H90.9241V46.2214V42.8577H90.325C89.9954 42.8577 89.7151 42.8683 89.7021 42.8814ZM95.0441 42.8957C94.668 42.9861 94.2958 43.2897 94.1307 43.6407L94.0387 43.8365V46.2392V48.6418L94.1232 48.8119C94.2571 49.0815 94.4947 49.3194 94.7611 49.4505L94.9983 49.5673H97.3838H99.7694L99.9677 49.4699C100.238 49.337 100.488 49.0818 100.621 48.802L100.73 48.5706V46.2392V43.9077L100.645 43.6941C100.584 43.5436 100.495 43.4166 100.342 43.2639C100.189 43.1112 100.062 43.0219 99.9118 42.9613L99.6982 42.8755L97.438 42.8695C96.1926 42.8662 95.1177 42.878 95.0441 42.8957ZM103.952 46.2214V49.5851H104.592H105.233V47.1742V44.7633L105.337 44.8694C105.394 44.9278 105.742 45.3365 106.111 45.7776C106.48 46.2188 107.35 47.2558 108.045 48.0821L109.309 49.5846L109.994 49.5848L110.679 49.5851V46.2205V42.856L110.047 42.8657L109.416 42.8755L109.398 45.2818L109.38 47.6881L108.437 46.5674C107.421 45.3606 106.35 44.0856 105.718 43.3293L105.323 42.8577H104.637H103.952V46.2214ZM12.9955 44.1628C12.9825 44.1758 12.9718 45.1017 12.9718 46.2202C12.9718 47.7544 12.9823 48.2643 13.0145 48.2965C13.0708 48.3528 16.9983 48.3585 17.1031 48.3024C17.1699 48.2666 17.172 48.2062 17.172 46.245C17.172 44.721 17.1615 44.214 17.1293 44.1818C17.097 44.1496 16.5872 44.1391 15.0529 44.1391C13.9344 44.1391 13.0086 44.1497 12.9955 44.1628ZM52.1064 44.1842C52.0969 44.209 52.0934 44.6295 52.0986 45.1186L52.1081 46.0078L54.1509 46.017C55.6299 46.0236 56.2069 46.0151 56.242 45.9859C56.3081 45.9311 56.3135 44.2475 56.2478 44.1818C56.1839 44.1179 52.1309 44.1202 52.1064 44.1842ZM95.2884 44.1951C95.2765 44.2262 95.2667 45.1548 95.2667 46.2586C95.2667 48.2064 95.2687 48.2666 95.3355 48.3024C95.4431 48.3599 99.3282 48.3526 99.4071 48.2947C99.4631 48.2536 99.4669 48.0961 99.4584 46.2036L99.4491 44.1569L97.3796 44.1477C95.5156 44.1394 95.308 44.1441 95.2884 44.1951ZM1.77575 51.5161C1.76635 51.5406 1.76286 52.2173 1.76799 53.02L1.77728 54.4793H3.07648C4.31169 54.4793 4.38163 54.4758 4.49653 54.4081C4.73865 54.2655 4.76591 54.1918 4.77873 53.6455C4.7882 53.2411 4.77944 53.1303 4.72904 53.0161C4.68095 52.9072 4.66703 52.7656 4.66415 52.3553C4.66006 51.7759 4.64126 51.7201 4.39384 51.5517C4.27738 51.4724 4.26357 51.4716 3.03452 51.4716C2.0735 51.4716 1.78899 51.4816 1.77575 51.5161ZM6.85678 52.7797C6.86856 54.2405 6.86383 54.2122 7.12613 54.392L7.25363 54.4793H8.35966C9.4113 54.4793 9.47185 54.4757 9.5902 54.4062C9.65865 54.366 9.75074 54.2795 9.79487 54.2141C9.87446 54.0959 9.87507 54.0853 9.87507 52.7833V51.4716H9.6437H9.41234V52.6952C9.41234 53.6888 9.40315 53.9265 9.3635 53.9594C9.32894 53.9881 9.02937 53.9972 8.34015 53.9905L7.36564 53.981L7.35628 52.7263L7.34692 51.4716H7.09658H6.84625L6.85678 52.7797ZM11.9633 51.4953C11.9502 51.5083 11.9396 52.1735 11.9396 52.9733V54.4277L12.0354 54.4641C12.0881 54.4842 12.1962 54.4958 12.2756 54.4899L12.4201 54.4793L12.4294 52.9754L12.4387 51.4716H12.2129C12.0886 51.4716 11.9763 51.4822 11.9633 51.4953ZM14.5179 51.5181C14.4876 51.5971 14.5183 54.4182 14.5498 54.4497C14.5661 54.466 15.2389 54.4793 16.0448 54.4793H17.5101L17.5207 54.2391L17.5312 53.9988H16.266H15.0007V52.7352V51.4716H14.7682C14.6096 51.4716 14.5301 51.4863 14.5179 51.5181ZM19.4144 52.9647V54.4602L19.4967 54.4808C19.5419 54.4922 20.1305 54.4965 20.8048 54.4904C22.2052 54.4778 22.2079 54.4772 22.3599 54.1773C22.4375 54.0241 22.44 53.9874 22.44 52.9757C22.44 51.8313 22.4335 51.7891 22.2285 51.5962L22.115 51.4894L20.7647 51.4793L19.4144 51.4691V52.9647ZM27.4044 51.5148C27.3947 51.54 27.391 52.2173 27.3962 53.02L27.4054 54.4793H28.7047C29.9511 54.4793 30.0089 54.4764 30.1283 54.4062C30.1968 54.366 30.2889 54.2795 30.333 54.2141C30.4063 54.1053 30.4132 54.054 30.4132 53.6186C30.4132 53.2524 30.3996 53.1116 30.3543 53.0099C30.3074 52.9046 30.2972 52.7826 30.3043 52.4129C30.3143 51.8913 30.2843 51.7744 30.0949 51.5962L29.9815 51.4894L28.7017 51.4792C27.6838 51.4711 27.4184 51.4784 27.4044 51.5148ZM32.5133 52.9627C32.5133 54.2896 32.5195 54.4563 32.5696 54.4755C32.6006 54.4874 33.1999 54.4971 33.9015 54.4971C34.603 54.4971 35.2024 54.4874 35.2334 54.4755C35.2766 54.4589 35.2897 54.401 35.2897 54.2264V53.9988H34.1506H33.0116V53.6073V53.2157H33.9209H34.8302L34.8197 52.9754L34.8091 52.7352L33.9104 52.7257L33.0116 52.7162V52.3252V51.9343H34.1506H35.2897V51.7029V51.4716H33.9015H32.5133V52.9627ZM37.1834 51.694L37.194 51.9165L37.8253 51.9262L38.4567 51.9359L38.466 53.2076L38.4754 54.4793L38.6327 54.4906C38.7192 54.4967 38.8274 54.4924 38.873 54.481L38.9559 54.4602V53.1972V51.9343H39.5788H40.2017V51.7029V51.4716H38.6872H37.1728L37.1834 51.694ZM42.0171 51.7025V51.9343H42.64C43.1141 51.9343 43.2631 51.9449 43.2638 51.9788C43.2643 52.0033 43.2639 52.5641 43.2629 53.2251L43.2611 54.427L43.3578 54.4638C43.411 54.484 43.5195 54.4958 43.599 54.4899L43.7434 54.4793L43.7528 53.2076L43.7621 51.9359L44.3935 51.9262L45.0248 51.9165V51.7029V51.4894L43.5209 51.4801L42.0171 51.4708V51.7025ZM46.9647 52.9659V54.4602L47.0448 54.4797C47.0888 54.4904 47.7095 54.4947 48.4241 54.4893L49.7233 54.4793L49.7338 54.2391L49.7443 53.9988H48.6037H47.463V53.6073V53.2157H48.3723H49.2816L49.2711 52.9754L49.2606 52.7352L48.4419 52.7272C47.9916 52.7228 47.5872 52.7188 47.5431 52.7183C47.465 52.7174 47.463 52.7079 47.463 52.3258V51.9343H48.6021H49.7411V51.7029V51.4716H48.3529H46.9647V52.9659ZM51.8056 52.9659V54.4602L51.8891 54.4811C51.935 54.4926 52.0351 54.4969 52.1115 54.4907L52.2505 54.4793L52.2604 53.9543L52.2702 53.4293L52.8299 53.4307L53.3896 53.4322L53.8315 53.9647L54.2735 54.4971H54.4782C54.7092 54.4971 54.7955 54.4736 54.7955 54.4109C54.7955 54.3872 54.6208 54.1607 54.4072 53.9075C54.1937 53.6542 54.0223 53.4437 54.0263 53.4395C54.0303 53.4353 54.1253 53.4244 54.2372 53.4153C54.5 53.3939 54.6622 53.2931 54.7606 53.0897C54.8312 52.9439 54.8366 52.8859 54.8254 52.3817C54.8121 51.7739 54.7939 51.7199 54.5467 51.5517C54.43 51.4722 54.4191 51.4716 53.1173 51.4716H51.8056V52.9659ZM62.3416 52.9858V54.5L63.7821 54.4955C64.5743 54.4931 65.2558 54.4823 65.2964 54.4717C65.3626 54.4544 65.3692 54.4297 65.3598 54.2345L65.3494 54.0166L64.0769 54.0072L62.8043 53.9979V52.7347V51.4716H62.573H62.3416V52.9858ZM67.2181 52.9659V54.4602L67.3016 54.4811C67.3475 54.4926 67.4476 54.4969 67.524 54.4907L67.663 54.4793L67.6723 52.9754L67.6816 51.4716H67.4498H67.2181V52.9659ZM69.7177 51.5517C69.7461 51.5957 70.1349 52.2644 70.5816 53.0377C71.0284 53.811 71.4111 54.455 71.4321 54.4687C71.4704 54.4938 71.8728 54.4843 71.8935 54.4578C71.9267 54.4152 73.5593 51.5702 73.5771 51.5239C73.5954 51.4761 73.5603 51.4699 73.3237 51.4789L73.049 51.4894L72.3741 52.664C72.0029 53.31 71.6879 53.8578 71.674 53.8812C71.6593 53.9062 71.3574 53.4182 70.942 52.6977L70.2352 51.4716H69.9506H69.6659L69.7177 51.5517ZM75.6055 51.4963C75.5919 51.51 75.5822 52.1736 75.584 52.971C75.5866 54.1167 75.597 54.429 75.6337 54.4595C75.6657 54.486 76.0953 54.4951 77.0108 54.4886L78.3414 54.4793L78.352 54.2391L78.3625 53.9988H77.2218H76.0812V53.6073V53.2157H76.9864C77.8456 53.2157 77.8928 53.2123 77.9132 53.1479C77.9437 53.0519 77.9265 52.8149 77.8851 52.7607C77.8585 52.7258 77.6537 52.7157 77.0102 52.7175C76.5482 52.7187 76.1501 52.7192 76.1257 52.7186C76.0928 52.7177 76.0812 52.6147 76.0812 52.3258V51.9343H77.2202H78.3592V51.7029V51.4716H76.9948C76.2443 51.4716 75.6191 51.4827 75.6055 51.4963ZM83.3069 52.9659V54.4602L83.3891 54.4808C83.4343 54.4922 84.023 54.4965 84.6972 54.4904C85.9032 54.4795 85.9252 54.478 86.054 54.3979C86.2725 54.262 86.3326 54.0867 86.3316 53.5871C86.331 53.2324 86.3186 53.1359 86.2566 53.0021C86.1918 52.8625 86.183 52.7804 86.1874 52.3614C86.1931 51.8157 86.1566 51.694 85.9445 51.5524C85.8245 51.4722 85.8142 51.4716 84.5652 51.4716H83.3069V52.9659ZM88.42 51.496C88.4065 51.5094 88.3965 52.1727 88.3977 52.97C88.3994 54.1285 88.4093 54.4275 88.4471 54.4588C88.48 54.4862 88.8964 54.4952 89.8249 54.4886L91.1555 54.4793L91.166 54.2391L91.1765 53.9988H90.0359H88.8952V53.6073V53.2157H89.8005C90.8171 53.2157 90.7571 53.2331 90.7414 52.9432C90.7288 52.7088 90.7476 52.7136 89.8594 52.7175C89.4172 52.7194 89.0194 52.7202 88.9753 52.7192C88.8972 52.7174 88.8952 52.7076 88.8952 52.3258V51.9343H90.0343H91.1733V51.7029V51.4716H89.8089C89.0584 51.4716 88.4334 51.4826 88.42 51.496ZM93.0954 51.7029V51.9343H93.7357H94.3759L94.3853 53.2068L94.3946 54.4793H94.6082H94.8218L94.8311 53.2068L94.8404 51.9343H95.4807H96.121V51.7029V51.4716H94.6082H93.0954V51.7029ZM97.9007 51.7029V51.9343H98.5409H99.1812L99.1905 53.2068L99.1999 54.4793L99.3389 54.4907C99.4153 54.4969 99.5155 54.4926 99.5614 54.4811L99.6448 54.4602V53.1972V51.9343H100.286H100.926V51.7029V51.4716H99.4135H97.9007V51.7029ZM102.884 52.9627C102.884 54.2896 102.89 54.4563 102.94 54.4755C103.026 54.5086 105.565 54.5001 105.618 54.4666C105.65 54.4464 105.661 54.371 105.653 54.2268L105.643 54.0166L104.495 54.0072L103.347 53.9978V53.6074V53.2169L104.263 53.2074L105.18 53.1979L105.191 52.9877C105.198 52.8439 105.187 52.7678 105.155 52.747C105.13 52.7303 104.74 52.7176 104.29 52.7188C103.84 52.72 103.443 52.7202 103.409 52.7192C103.354 52.7176 103.347 52.6743 103.347 52.3258V51.9343H104.482C105.759 51.9343 105.66 51.9583 105.66 51.6466V51.4716H104.272H102.884V52.9627ZM107.706 51.5149C107.696 51.54 107.693 52.2173 107.698 53.02L107.707 54.4793L107.864 54.4906C108.197 54.5143 108.188 54.5302 108.188 53.9447V53.4293H108.735H109.283L109.724 53.9543L110.164 54.4793L110.357 54.4903C110.577 54.5028 110.715 54.4772 110.715 54.4241C110.715 54.4043 110.537 54.1792 110.32 53.9238C110.103 53.6684 109.933 53.4519 109.942 53.4427C109.951 53.4334 110.041 53.4203 110.14 53.4135C110.347 53.3994 110.513 53.3149 110.622 53.1686C110.692 53.0752 110.697 53.0231 110.697 52.4305V51.793L110.545 51.6412L110.393 51.4894L109.058 51.4792C107.996 51.4712 107.72 51.4784 107.706 51.5149ZM2.3023 51.9579C2.27094 51.9705 2.25781 52.079 2.25781 52.325C2.25781 52.6106 2.26806 52.6781 2.31412 52.6958C2.34509 52.7077 2.75834 52.7174 3.23246 52.7174C3.85547 52.7174 4.10634 52.7055 4.13721 52.6747C4.16422 52.6477 4.17992 52.5118 4.17992 52.3047C4.17992 52.0392 4.16931 51.9735 4.12361 51.9559C4.05651 51.9301 2.36648 51.932 2.3023 51.9579ZM19.9291 51.9787C19.9195 52.0038 19.9159 52.4646 19.9211 53.0026L19.9306 53.981H20.9272H21.9239V52.9665V51.9521L20.9352 51.9426C20.1578 51.9352 19.9428 51.9429 19.9291 51.9787ZM27.9305 51.9576C27.8701 51.9823 27.8685 52.6145 27.9287 52.6747C27.9784 52.7244 29.6879 52.7361 29.7649 52.6872C29.7985 52.6659 29.808 52.5635 29.8005 52.3051L29.7903 51.9521L28.8826 51.9457C28.3834 51.9422 27.955 51.9475 27.9305 51.9576ZM52.3242 51.9902C52.2482 52.0663 52.2422 52.8293 52.3172 52.8916C52.3517 52.9202 52.6513 52.9294 53.3405 52.9226L54.315 52.9132L54.325 52.4532C54.3325 52.1091 54.3236 51.986 54.2894 51.9643C54.2644 51.9484 53.8245 51.9352 53.312 51.9348C52.5119 51.9344 52.3723 51.9422 52.3242 51.9902ZM83.8065 52.0031C83.746 52.1162 83.7599 52.5958 83.8255 52.6615C83.8733 52.7092 84.0077 52.7174 84.7485 52.7174C85.4892 52.7174 85.6236 52.7092 85.6714 52.6615C85.7412 52.5916 85.7518 52.0442 85.6846 51.977C85.6536 51.946 85.3946 51.9343 84.7426 51.9343C83.8899 51.9343 83.8414 51.9379 83.8065 52.0031ZM108.231 51.9643C108.197 51.986 108.188 52.1091 108.195 52.4532L108.205 52.9132L109.18 52.9226C109.869 52.9294 110.169 52.9202 110.203 52.8916C110.263 52.8421 110.273 52.1107 110.215 52.0031C110.18 51.9377 110.131 51.9343 109.227 51.9348C108.704 51.9352 108.256 51.9484 108.231 51.9643ZM2.27311 53.2271C2.26318 53.253 2.25969 53.4332 2.26535 53.6276L2.2756 53.981L3.25012 53.9905C3.93934 53.9972 4.2389 53.9881 4.27346 53.9594C4.33276 53.9102 4.34212 53.3549 4.28546 53.249C4.2504 53.1835 4.2011 53.1801 3.26987 53.1801C2.49163 53.1801 2.28746 53.1898 2.27311 53.2271ZM27.9013 53.2271C27.8913 53.253 27.8879 53.4332 27.8935 53.6276L27.9038 53.981L28.8783 53.9905C29.5675 53.9972 29.8671 53.9881 29.9016 53.9594C29.9655 53.9064 29.9707 53.2858 29.9078 53.2228C29.8429 53.1579 27.9263 53.1621 27.9013 53.2271ZM83.8129 53.2223C83.7494 53.2857 83.7541 53.906 83.8185 53.9594C83.853 53.9881 84.1526 53.9972 84.8418 53.9905L85.8163 53.981V53.5895V53.1979L84.8362 53.1885C84.1038 53.1814 83.8452 53.1899 83.8129 53.2223ZM56.8792 54.0789C56.8695 54.1229 56.8662 54.231 56.8719 54.3191L56.8823 54.4793L57.0402 54.4871C57.3437 54.5021 57.3584 54.4902 57.3584 54.2295V53.9988H57.1277C56.9175 53.9988 56.8954 54.0059 56.8792 54.0789ZM112.787 54.2391L112.797 54.4793H113.011H113.224L113.235 54.2391L113.245 53.9988H113.011H112.776L112.787 54.2391Z" fill="white"/>
</g>
<defs>
<clipPath id="clip0_832_388">
<rect width="114.894" height="54" fill="white" transform="translate(0.617188 0.5)"/>
</clipPath>
</defs>
</svg>
