<svg width="116" height="55" viewBox="0 0 116 55" fill="none" xmlns="http://www.w3.org/2000/svg">
<g clip-path="url(#clip0_832_385)">
<path fill-rule="evenodd" clip-rule="evenodd" d="M12.9141 2.95603V5.41206H18.3067H23.6993L23.6993 5.54554C23.6994 5.61898 23.7034 10.4683 23.7082 16.3218L23.7171 26.9646L26.182 26.9738L28.6469 26.9829V16.1975V5.41206H34.0217H39.3965V2.95603V0.5H26.1553H12.9141V2.95603ZM42.2797 2.95603V5.41206H47.6723H53.0649V16.1975V26.9829L55.5298 26.9738L57.9947 26.9646L58.0036 16.2328C58.0084 10.3304 58.0124 5.48105 58.0125 5.45656C58.0125 5.42118 59.1113 5.41206 63.3873 5.41206H68.7621V2.95603V0.5H55.5209H42.2797V2.95603ZM77.343 0.556488C75.2475 0.861499 73.4731 2.5563 73.042 4.66458C72.9842 4.94713 72.9801 5.54853 72.9801 13.759V22.5509L73.0631 22.9218C73.1725 23.4105 73.2843 23.7166 73.5203 24.1739C74.2625 25.612 75.7158 26.6797 77.2693 26.9281C77.5664 26.9756 78.9286 26.9822 88.4905 26.9823L99.3736 26.9824V21.8254V16.6683L99.0977 16.6455C98.946 16.6329 98.6495 16.6048 98.4388 16.5832C97.9748 16.5356 97.5805 16.5565 97.4254 16.6371C97.2763 16.7144 97.217 16.8364 97.1865 17.128C97.1646 17.3378 97.1718 17.3843 97.2503 17.5392C97.299 17.6353 97.3632 17.8074 97.3931 17.9217C97.4466 18.1267 97.4461 18.1311 97.3605 18.2433C97.2505 18.3875 96.9996 18.5989 96.7432 18.7634C96.6335 18.8337 96.4076 19.0001 96.2412 19.1331C95.7686 19.5109 95.1559 19.9072 94.654 20.1597C94.1324 20.4221 94.0373 20.5071 93.7204 20.9933C93.4268 21.4437 93.3328 21.6492 93.2707 21.9766C93.1984 22.3574 93.2455 22.6958 93.4276 23.1026C93.502 23.269 93.5993 23.5653 93.6438 23.7611C93.6883 23.9569 93.7717 24.2115 93.8293 24.327C94.0952 24.8605 94.2855 25.5107 94.2349 25.7125C94.222 25.7638 94.1787 25.8233 94.1386 25.8448C94.0411 25.8969 93.7539 25.7608 93.2335 25.4156C92.5785 24.9811 92.1816 24.8468 91.5537 24.8468C90.8121 24.8468 90.3852 24.5837 89.8478 23.7956C89.4558 23.2207 89.3783 23.0207 89.3362 22.4747C89.2874 21.8434 89.1469 21.5942 88.8096 21.5408C88.7102 21.5251 88.5882 21.4856 88.5384 21.453C88.4461 21.3925 87.6897 20.2706 87.5412 19.9739C87.4961 19.8838 87.431 19.722 87.3966 19.6143C87.2817 19.2553 87.0192 18.6401 86.797 18.2093C86.4403 17.5175 86.1525 17.2641 85.5443 17.1065C85.3209 17.0486 85.2425 16.9828 85.2425 16.8533C85.2425 16.6626 85.0204 16.6281 84.4376 16.7283C84.2005 16.769 83.9036 16.8024 83.7777 16.8024C83.5544 16.8024 83.5419 16.8074 83.2655 17.0115C83.1097 17.1265 82.9467 17.2591 82.9033 17.3061C82.7878 17.4315 82.7123 17.6726 82.6892 17.99C82.6662 18.3075 82.7232 18.2431 82.1151 18.638C81.683 18.9185 81.5997 18.9068 81.1427 18.5004C80.7122 18.1177 80.2018 17.7359 79.9567 17.6133C79.8392 17.5546 79.7067 17.4731 79.6623 17.4323C79.5437 17.3234 79.4418 16.9473 79.4051 16.4822C79.3271 15.4951 79.1383 15.2123 77.9812 14.3497C77.4962 13.9882 77.1798 13.7209 76.9311 13.4626C76.7353 13.2593 76.4427 12.989 76.2809 12.862C75.9526 12.6042 75.9167 12.5558 75.9167 12.3717C75.9167 12.2968 75.8853 12.2009 75.8413 12.1414C75.7028 11.9541 75.7293 11.9494 76.785 11.9759C78.7662 12.0255 81.542 12.1022 82.1 12.1228L82.6772 12.144L82.6941 12.0616C82.7035 12.0163 82.7519 10.4336 82.8018 8.5444C82.8516 6.65521 82.9002 4.94133 82.9098 4.73577C82.9193 4.53021 82.9379 3.90225 82.951 3.34031L82.9749 2.31864L83.5481 2.30729C85.0418 2.27767 88.1475 2.28226 88.1968 2.31416C88.2434 2.34423 88.2494 2.60916 88.2439 4.38388C88.2394 5.84351 88.2263 6.42609 88.1977 6.44378C88.1512 6.4725 88.4901 6.80019 88.8384 7.06348C89.3501 7.45025 89.9986 7.62869 90.4571 7.50884C90.7319 7.43697 90.759 7.43309 90.8407 7.45356C90.886 7.46495 91.0264 7.54152 91.1528 7.62371C91.3801 7.77157 91.3867 7.77335 91.7691 7.78979C92.021 7.80058 92.2235 7.79011 92.3502 7.75971C92.5395 7.71433 92.5506 7.71596 92.7645 7.82179C93.0491 7.96249 93.3418 8.18425 93.4572 8.34645C93.598 8.54432 93.5901 8.54418 94.6643 8.36482C94.9169 8.32264 95.1844 8.18012 95.4082 7.96844C95.5929 7.79381 95.5997 7.79089 95.8917 7.76249C96.0546 7.74665 96.2493 7.7071 96.3244 7.67457C96.4382 7.62527 96.4826 7.62246 96.5913 7.6577C96.9025 7.75854 97.223 7.9547 97.4864 8.20561L97.7589 8.46523L98.2531 8.49168C98.7076 8.51603 98.7669 8.51183 98.9917 8.43943C99.1262 8.39614 99.2575 8.36891 99.2835 8.37891C99.3114 8.38959 99.3393 8.36511 99.3513 8.31947C99.3625 8.27676 99.3722 6.49994 99.3729 4.37092L99.3741 0.5L88.5264 0.503808C79.5348 0.507012 77.6212 0.516017 77.343 0.556488ZM1.70176 32.1259V33.0335H3.67727H5.65277V37.0029V40.9723L6.56934 40.9629L7.4859 40.9533L7.49494 36.9934L7.50402 33.0335H9.46155H11.4191V32.1259V31.2182H6.56044H1.70176V32.1259ZM15.7301 31.2745C15.1129 31.4404 14.5808 31.9702 14.3946 32.604C14.3441 32.776 14.3379 33.2474 14.3379 36.8848V40.9723L15.2366 40.9629L16.1354 40.9533L16.1447 39.3249L16.1539 37.6964H19.1969H22.2399V39.3338V40.9711H23.1476H24.0552V36.9208C24.0552 32.5042 24.0633 32.69 23.8523 32.2504C23.727 31.9894 23.2831 31.5463 23.0183 31.4179C22.595 31.2127 22.7148 31.2189 19.1788 31.221C16.4511 31.2226 15.8907 31.2313 15.7301 31.2745ZM27.4723 36.0947V40.9711H28.38H29.2876V38.9956V37.0201H30.4179H31.5482L32.2254 37.8299C32.5979 38.2753 33.3417 39.1643 33.8784 39.8054L34.8541 40.9711H35.8439H36.8337V40.7075V40.4438L36.2407 39.7375C35.9146 39.3491 35.374 38.7044 35.0394 38.3049C34.7048 37.9054 34.1543 37.2495 33.816 36.8472C33.4777 36.4449 33.2088 36.0954 33.2184 36.0705C33.228 36.0455 34.0453 35.056 35.0348 33.8715L36.8337 31.718V31.4681V31.2182H35.8398H34.846L33.6463 32.6509C32.9864 33.4389 32.2443 34.3274 31.9972 34.6255L31.5479 35.1674L30.4178 35.1683L29.2876 35.1692V33.1937V31.2182H28.38H27.4723V36.0947ZM40.1084 36.0948V40.9714L44.5844 40.9624L49.0605 40.9533L49.07 40.0546L49.0795 39.1558H45.5016H41.9237V38.088V37.0201H44.7891H47.6545V36.0947V35.1692H44.7891H41.9237V34.1015V33.0339L45.4921 33.0248L49.0605 33.0157L49.07 32.117L49.0795 31.2182H44.594H40.1084V36.0948ZM53.6435 31.2732C53.1298 31.4115 52.6308 31.8391 52.4034 32.336C52.2637 32.6411 52.2462 32.8412 52.2462 34.1343C52.2462 35.1271 52.2568 35.4087 52.3007 35.5771C52.4804 36.2668 53.1078 36.8577 53.7922 36.9818C53.9321 37.0072 55.0258 37.0201 57.0331 37.0201C59.3421 37.0201 60.0729 37.0303 60.1055 37.0628C60.1367 37.094 60.1482 37.3684 60.1482 38.0748C60.1482 38.9084 60.1404 39.0518 60.0923 39.0999C60.0423 39.1498 59.7228 39.1558 57.1091 39.1558C54.8228 39.1558 54.1689 39.1461 54.1225 39.1113C54.075 39.0757 54.0612 38.9928 54.0535 38.6931L54.0437 38.3193H53.1539H52.264L52.2531 38.7821C52.2404 39.3225 52.2823 39.5844 52.4324 39.9033C52.5682 40.1918 52.9923 40.6239 53.2784 40.7653C53.7056 40.9765 53.6066 40.9711 57.1049 40.9711C60.6032 40.9711 60.5041 40.9765 60.9313 40.7653C61.1967 40.6342 61.6395 40.1923 61.7642 39.9342C61.9534 39.5424 61.9627 39.4553 61.9631 38.0626C61.9636 36.8083 61.9613 36.7666 61.8801 36.5108C61.681 35.8838 61.1582 35.3898 60.5173 35.2229C60.3414 35.177 59.8626 35.1692 57.2427 35.1692C55.555 35.1692 54.1488 35.1595 54.1178 35.1476C54.0683 35.1286 54.0615 35.0047 54.0615 34.1225C54.0615 33.3894 54.073 33.1075 54.1042 33.0762C54.1661 33.0144 60.0436 33.0144 60.1055 33.0762C60.1332 33.1039 60.1482 33.2479 60.1482 33.4856V33.8522H61.0559H61.9636V33.3436C61.9636 32.5451 61.8562 32.2508 61.3947 31.7837C61.1096 31.4951 60.8839 31.3581 60.5507 31.2713C60.2552 31.1944 53.9299 31.196 53.6435 31.2732ZM70.8266 32.1259V33.0335H72.8021H74.7776V37.0023V40.9711H75.6853H76.593V37.0023V33.0335H78.5685H80.544V32.1259V31.2182H75.6853H70.8266V32.1259ZM83.1424 31.2341C83.1424 31.2428 83.5042 32.2479 83.9465 33.4676C84.8445 35.9441 86.6243 40.8575 86.6487 40.9274C86.661 40.9624 86.8268 40.9704 87.3815 40.963L88.0984 40.9533L89.326 37.5719C90.0012 35.712 90.5639 34.1793 90.5765 34.1658C90.5968 34.1441 91.0321 35.3186 92.6601 39.787L93.0911 40.97L93.8062 40.9705L94.5212 40.9711L94.8512 40.0546C95.1326 39.2732 96.8655 34.4909 97.7694 32.0013L98.0473 31.236L97.1022 31.2265C96.5823 31.2213 96.1449 31.2293 96.1301 31.2443C96.1152 31.2593 95.589 32.6884 94.9606 34.4201C94.3322 36.1518 93.8141 37.5726 93.8093 37.5774C93.8044 37.5823 93.2788 36.1574 92.6413 34.4111L91.482 31.236L90.5953 31.2265L89.7086 31.217L88.7317 33.8961C88.1944 35.3696 87.6746 36.7955 87.5765 37.0646C87.4785 37.3338 87.3897 37.554 87.3793 37.5539C87.3689 37.5538 87.2307 37.1974 87.0723 36.7619C86.9138 36.3264 86.3942 34.9009 85.9176 33.5941L85.051 31.2182H84.0967C83.5718 31.2182 83.1424 31.2254 83.1424 31.2341ZM102.221 31.2853C101.653 31.4689 101.186 31.8946 100.981 32.4145C100.837 32.7794 100.828 33.0173 100.84 36.2726C100.851 39.1752 100.857 39.4005 100.917 39.5829C101.115 40.1786 101.543 40.6394 102.118 40.8745L102.31 40.9533L105.602 40.9631C107.891 40.97 108.95 40.961 109.081 40.9338C109.766 40.7916 110.402 40.147 110.547 39.4477C110.573 39.3189 110.586 38.2515 110.585 36.084C110.585 32.5874 110.589 32.6672 110.364 32.236C110.227 31.9742 109.821 31.5593 109.568 31.424C109.175 31.213 109.27 31.218 105.693 31.2201C102.653 31.2219 102.403 31.2266 102.221 31.2853ZM16.1959 33.0762C16.1642 33.108 16.1532 33.4733 16.1532 34.5V35.8811H19.1965H22.2399V34.5132C22.2399 33.3172 22.2329 33.1384 22.184 33.0895C22.134 33.0395 21.8129 33.0335 19.1833 33.0335C16.9405 33.0335 16.2285 33.0437 16.1959 33.0762ZM102.704 33.0895C102.654 33.1394 102.648 33.461 102.648 36.0947C102.648 38.7284 102.654 39.0499 102.704 39.0999C102.754 39.1498 103.074 39.1558 105.686 39.1558C108.277 39.1558 108.621 39.1495 108.691 39.1004L108.771 39.045V36.0982C108.771 33.2885 108.768 33.1486 108.705 33.0924C108.646 33.0386 108.386 33.0335 105.7 33.0335C103.075 33.0335 102.754 33.0395 102.704 33.0895ZM2.76056 42.8963C2.38646 42.9845 2.01251 43.2893 1.8472 43.6407L1.75516 43.8365V46.2392V48.6418L1.84258 48.8198C1.95466 49.048 2.27445 49.3677 2.50265 49.4798L2.68062 49.5673L5.55489 49.5772L8.42916 49.5871V48.9638V48.3406L5.79206 48.331L3.15495 48.3214L3.06906 48.2216L2.98317 48.1217V46.2178V44.3138L3.07056 44.2265L3.15791 44.1391H5.79355H8.42916V43.4984V42.8577L5.66167 42.8612C4.13957 42.8632 2.83407 42.879 2.76056 42.8963ZM12.5593 42.9146C12.1951 43.0125 11.8981 43.2632 11.6993 43.6407L11.6149 43.8009L11.605 46.1729C11.5953 48.512 11.5962 48.5478 11.6703 48.7459C11.769 49.0096 12.0597 49.3239 12.3329 49.4623L12.5403 49.5673H14.943H17.3456L17.5414 49.4709C17.9424 49.2734 18.2223 48.8892 18.2922 48.4399C18.3144 48.2974 18.3238 47.3882 18.3167 46.0585C18.3059 44.0187 18.3017 43.8989 18.2356 43.7374C18.0729 43.3402 17.7067 43.013 17.3115 42.9119C17.0028 42.833 12.8544 42.8353 12.5593 42.9146ZM21.528 46.2214V49.5851H22.1509H22.7738V47.1564V44.7277L22.8766 44.8338C22.9332 44.8922 23.7519 45.861 24.696 46.9866C25.64 48.1123 26.4851 49.1183 26.574 49.2222C26.6628 49.3261 26.7663 49.4502 26.8039 49.4981C26.8723 49.585 26.8729 49.5851 27.5639 49.5851H28.2554V46.2205V42.856L27.6236 42.8657L26.9918 42.8755L26.974 45.2865L26.9562 47.6975L25.0697 45.4493C24.0321 44.2129 23.1191 43.1251 23.0408 43.0321L22.8984 42.8629L22.2132 42.8603L21.528 42.8577V46.2214ZM32.4692 42.9073C32.0918 43.0002 31.7485 43.2919 31.5716 43.6701C31.4792 43.8675 31.4768 43.8909 31.4646 44.7014C31.4508 45.6262 31.4824 45.9105 31.6291 46.18C31.7558 46.4129 32.0556 46.679 32.3044 46.7794L32.509 46.8621L34.7069 46.8725L36.9049 46.8829V47.5895C36.9049 48.2009 36.8973 48.2989 36.8486 48.3176C36.7611 48.3512 32.8354 48.342 32.7819 48.3081C32.7509 48.2884 32.7323 48.1928 32.7285 48.0327L32.7225 47.7875L32.0857 47.7778L31.4489 47.768L31.4683 48.1693C31.4793 48.3988 31.5119 48.637 31.5442 48.7257C31.6813 49.1013 32.0918 49.4685 32.4648 49.5493C32.5962 49.5778 33.3249 49.5864 34.9302 49.5785L37.2091 49.5673L37.444 49.4516C37.7225 49.3144 37.9412 49.091 38.0738 48.8082L38.1685 48.6062V47.591V46.5758L38.0528 46.3408C37.9157 46.0622 37.6923 45.8435 37.4095 45.7109L37.2075 45.6162L35.0013 45.6063C33.7879 45.6008 32.7823 45.5835 32.7666 45.5678C32.7278 45.5289 32.7279 44.2084 32.7668 44.1695C32.784 44.1524 33.7128 44.1426 34.8425 44.1477L36.8871 44.1569L36.9049 44.4238L36.9227 44.6908L37.5582 44.7005L38.1937 44.7103L38.1811 44.2734C38.1699 43.8837 38.158 43.815 38.0711 43.6382C37.9382 43.3677 37.6831 43.1182 37.4032 42.9853L37.1719 42.8755L34.9116 42.8689C33.1958 42.864 32.6074 42.8733 32.4692 42.9073ZM41.0695 43.4984V44.1391H42.4399H43.8103V46.8621V49.5851H44.451H45.0917V46.8621V44.1391H46.4443H47.7969V43.4984V42.8577H44.4332H41.0695V43.4984ZM50.7022 42.9125C50.6736 42.9871 50.6731 49.4543 50.7016 49.5287C50.7202 49.5771 50.8106 49.5851 51.3424 49.5851H51.9614V48.446V47.307H53.0433H54.1252L55.0782 48.446L56.0312 49.5851H56.7193H57.4074V49.4124V49.2398L56.6079 48.3001C56.1682 47.7832 55.8078 47.3507 55.807 47.339C55.8063 47.3272 55.939 47.3082 56.1021 47.2966C56.7142 47.2535 57.1391 46.9536 57.3367 46.4255C57.4074 46.2367 57.4104 46.1704 57.4003 45.0319L57.3896 43.8365L57.2904 43.6344C57.1609 43.3708 56.8357 43.0685 56.5633 42.9586L56.3574 42.8755L53.5409 42.8652C50.9706 42.8557 50.7224 42.8599 50.7022 42.9125ZM60.5833 45.7319L60.5932 48.6062L60.6861 48.802C60.8238 49.0923 61.0395 49.3146 61.3151 49.4503L61.5526 49.5673L63.8642 49.5769C66.4232 49.5876 66.3837 49.5906 66.7201 49.3598C66.9544 49.1991 67.147 48.9377 67.2322 48.6648C67.3 48.4472 67.3028 48.331 67.3028 45.6481V42.8577H66.662H66.0213V45.5557C66.0213 47.6068 66.0111 48.2641 65.9786 48.2965C65.9464 48.3287 65.4437 48.3392 63.9345 48.3392C62.1625 48.3392 61.9266 48.3328 61.8771 48.2833C61.8273 48.2335 61.8212 47.9358 61.8212 45.5425V42.8577H61.1973H60.5733L60.5833 45.7319ZM71.5111 42.9127C71.2422 42.9853 71.1219 43.056 70.916 43.2625C70.7088 43.4704 70.5946 43.6831 70.5424 43.9583C70.4919 44.2247 70.4941 48.2242 70.545 48.5018C70.6192 48.9073 70.9079 49.2831 71.2894 49.4709L71.4851 49.5673L74.3594 49.577L77.2337 49.5867V48.963V48.3392L74.6797 48.339C73.0243 48.3389 72.079 48.3259 71.9928 48.3019C71.9196 48.2816 71.8435 48.2347 71.8237 48.1976C71.8007 48.1547 71.7877 47.4428 71.7877 46.2277C71.7877 44.4074 71.7906 44.3213 71.8557 44.2409L71.9238 44.1569L74.5698 44.1391L77.2159 44.1213V43.4984V42.8755L74.4573 42.8688C72.1687 42.8632 71.6667 42.8708 71.5111 42.9127ZM80.0614 42.9035C80.0517 42.9287 80.0482 43.2131 80.0536 43.5353L80.0634 44.1213L81.4249 44.1306L82.7864 44.1399V46.8625V49.5851H83.4271H84.0678V46.8621V44.1391H85.4204H86.773V43.4984V42.8577H83.426C80.7281 42.8577 80.0756 42.8666 80.0614 42.9035ZM89.5732 42.8814C89.5601 42.8944 89.5494 44.4081 89.5494 46.2451V49.5851H90.1723H90.7952V46.2214V42.8577H90.1961C89.8665 42.8577 89.5862 42.8683 89.5732 42.8814ZM94.9152 42.8957C94.5391 42.9861 94.1669 43.2897 94.0018 43.6407L93.9098 43.8365V46.2392V48.6418L93.9943 48.8119C94.1281 49.0815 94.3658 49.3194 94.6322 49.4505L94.8694 49.5673H97.2549H99.6405L99.8388 49.4699C100.109 49.337 100.359 49.0818 100.492 48.802L100.602 48.5706V46.2392V43.9077L100.516 43.6941C100.455 43.5436 100.366 43.4166 100.213 43.2639C100.06 43.1112 99.9334 43.0219 99.7829 42.9613L99.5693 42.8755L97.3091 42.8695C96.0637 42.8662 94.9888 42.878 94.9152 42.8957ZM103.823 46.2214V49.5851H104.464H105.104V47.1742V44.7633L105.208 44.8694C105.265 44.9278 105.613 45.3365 105.982 45.7776C106.351 46.2188 107.221 47.2558 107.916 48.0821L109.18 49.5846L109.865 49.5848L110.55 49.5851V46.2205V42.856L109.918 42.8657L109.287 42.8755L109.269 45.2818L109.251 47.6881L108.308 46.5674C107.292 45.3606 106.221 44.0856 105.589 43.3293L105.194 42.8577H104.509H103.823V46.2214ZM12.8666 44.1628C12.8536 44.1758 12.8429 45.1017 12.8429 46.2202C12.8429 47.7544 12.8534 48.2643 12.8856 48.2965C12.9419 48.3528 16.8694 48.3585 16.9742 48.3024C17.041 48.2666 17.0431 48.2062 17.0431 46.245C17.0431 44.721 17.0326 44.214 17.0004 44.1818C16.9681 44.1496 16.4582 44.1391 14.924 44.1391C13.8055 44.1391 12.8797 44.1497 12.8666 44.1628ZM51.9775 44.1842C51.968 44.209 51.9645 44.6295 51.9697 45.1186L51.9792 46.0078L54.0219 46.017C55.501 46.0236 56.078 46.0151 56.1131 45.9859C56.1792 45.9311 56.1846 44.2475 56.1189 44.1818C56.055 44.1179 52.002 44.1202 51.9775 44.1842ZM95.1595 44.1951C95.1476 44.2262 95.1378 45.1548 95.1378 46.2586C95.1378 48.2064 95.1398 48.2666 95.2066 48.3024C95.3142 48.3599 99.1993 48.3526 99.2782 48.2947C99.3342 48.2536 99.338 48.0961 99.3295 46.2036L99.3202 44.1569L97.2507 44.1477C95.3867 44.1394 95.1791 44.1441 95.1595 44.1951ZM1.64684 51.5161C1.63745 51.5406 1.63396 52.2173 1.63908 53.02L1.64837 54.4793H2.94758C4.18278 54.4793 4.25273 54.4758 4.36763 54.4081C4.60974 54.2655 4.63701 54.1918 4.64982 53.6455C4.65929 53.2411 4.65053 53.1303 4.60013 53.0161C4.55204 52.9072 4.53813 52.7656 4.53524 52.3553C4.53115 51.7759 4.51236 51.7201 4.26494 51.5517C4.14847 51.4724 4.13466 51.4716 2.90561 51.4716C1.94459 51.4716 1.66008 51.4816 1.64684 51.5161ZM6.72788 52.7797C6.73966 54.2405 6.73492 54.2122 6.99722 54.392L7.12472 54.4793H8.23075C9.2824 54.4793 9.34295 54.4757 9.4613 54.4062C9.52975 54.366 9.62183 54.2795 9.66597 54.2141C9.74556 54.0959 9.74616 54.0853 9.74616 52.7833V51.4716H9.5148H9.28343V52.6952C9.28343 53.6888 9.27425 53.9265 9.23459 53.9594C9.20003 53.9881 8.90047 53.9972 8.21125 53.9905L7.23674 53.981L7.22738 52.7263L7.21801 51.4716H6.96768H6.71734L6.72788 52.7797ZM11.8344 51.4953C11.8213 51.5083 11.8107 52.1735 11.8107 52.9733V54.4277L11.9065 54.4641C11.9592 54.4842 12.0673 54.4958 12.1467 54.4899L12.2912 54.4793L12.3005 52.9754L12.3098 51.4716H12.0839C11.9597 51.4716 11.8474 51.4822 11.8344 51.4953ZM14.389 51.5181C14.3587 51.5971 14.3894 54.4182 14.4209 54.4497C14.4372 54.466 15.11 54.4793 15.9159 54.4793H17.3812L17.3918 54.2391L17.4023 53.9988H16.137H14.8718V52.7352V51.4716H14.6393C14.4806 51.4716 14.4012 51.4863 14.389 51.5181ZM19.2855 52.9647V54.4602L19.3678 54.4808C19.413 54.4922 20.0016 54.4965 20.6759 54.4904C22.0763 54.4778 22.079 54.4772 22.231 54.1773C22.3086 54.0241 22.3111 53.9874 22.3111 52.9757C22.3111 51.8313 22.3046 51.7891 22.0996 51.5962L21.9861 51.4894L20.6358 51.4793L19.2855 51.4691V52.9647ZM27.2755 51.5148C27.2658 51.54 27.2621 52.2173 27.2672 53.02L27.2765 54.4793H28.5757C29.8222 54.4793 29.88 54.4764 29.9994 54.4062C30.0679 54.366 30.16 54.2795 30.2041 54.2141C30.2774 54.1053 30.2843 54.054 30.2843 53.6186C30.2843 53.2524 30.2707 53.1116 30.2254 53.0099C30.1785 52.9046 30.1683 52.7826 30.1754 52.4129C30.1854 51.8913 30.1554 51.7744 29.966 51.5962L29.8526 51.4894L28.5728 51.4792C27.5549 51.4711 27.2895 51.4784 27.2755 51.5148ZM32.3844 52.9627C32.3844 54.2896 32.3906 54.4563 32.4407 54.4755C32.4717 54.4874 33.071 54.4971 33.7726 54.4971C34.4741 54.4971 35.0735 54.4874 35.1044 54.4755C35.1477 54.4589 35.1608 54.401 35.1608 54.2264V53.9988H34.0217H32.8827V53.6073V53.2157H33.792H34.7013L34.6908 52.9754L34.6802 52.7352L33.7815 52.7257L32.8827 52.7162V52.3252V51.9343H34.0217H35.1608V51.7029V51.4716H33.7726H32.3844V52.9627ZM37.0545 51.694L37.0651 51.9165L37.6964 51.9262L38.3278 51.9359L38.3371 53.2076L38.3465 54.4793L38.5038 54.4906C38.5903 54.4967 38.6984 54.4924 38.7441 54.481L38.827 54.4602V53.1972V51.9343H39.4499H40.0728V51.7029V51.4716H38.5583H37.0439L37.0545 51.694ZM41.8882 51.7025V51.9343H42.5111C42.9852 51.9343 43.1342 51.9449 43.1349 51.9788C43.1354 52.0033 43.135 52.5641 43.134 53.2251L43.1322 54.427L43.2289 54.4638C43.2821 54.484 43.3906 54.4958 43.4701 54.4899L43.6145 54.4793L43.6239 53.2076L43.6332 51.9359L44.2646 51.9262L44.8959 51.9165V51.7029V51.4894L43.392 51.4801L41.8882 51.4708V51.7025ZM46.8358 52.9659V54.4602L46.9159 54.4797C46.9599 54.4904 47.5806 54.4947 48.2952 54.4893L49.5944 54.4793L49.6049 54.2391L49.6154 53.9988H48.4748H47.3341V53.6073V53.2157H48.2434H49.1527L49.1422 52.9754L49.1317 52.7352L48.313 52.7272C47.8627 52.7228 47.4583 52.7188 47.4142 52.7183C47.3361 52.7174 47.3341 52.7079 47.3341 52.3258V51.9343H48.4732H49.6122V51.7029V51.4716H48.224H46.8358V52.9659ZM51.6767 52.9659V54.4602L51.7602 54.4811C51.8061 54.4926 51.9062 54.4969 51.9826 54.4907L52.1216 54.4793L52.1315 53.9543L52.1413 53.4293L52.701 53.4307L53.2607 53.4322L53.7026 53.9647L54.1446 54.4971H54.3493C54.5803 54.4971 54.6666 54.4736 54.6666 54.4109C54.6666 54.3872 54.4919 54.1607 54.2783 53.9075C54.0648 53.6542 53.8933 53.4437 53.8974 53.4395C53.9014 53.4353 53.9964 53.4244 54.1083 53.4153C54.3711 53.3939 54.5333 53.2931 54.6317 53.0897C54.7023 52.9439 54.7076 52.8859 54.6965 52.3817C54.6832 51.7739 54.665 51.7199 54.4178 51.5517C54.301 51.4722 54.2902 51.4716 52.9884 51.4716H51.6767V52.9659ZM62.2127 52.9858V54.5L63.6532 54.4955C64.4454 54.4931 65.1269 54.4823 65.1675 54.4717C65.2337 54.4544 65.2403 54.4297 65.2309 54.2345L65.2205 54.0166L63.948 54.0072L62.6754 53.9979V52.7347V51.4716H62.4441H62.2127V52.9858ZM67.0892 52.9659V54.4602L67.1727 54.4811C67.2186 54.4926 67.3187 54.4969 67.3951 54.4907L67.5341 54.4793L67.5434 52.9754L67.5527 51.4716H67.3209H67.0892V52.9659ZM69.5887 51.5517C69.6172 51.5957 70.006 52.2644 70.4527 53.0377C70.8995 53.811 71.2822 54.455 71.3032 54.4687C71.3415 54.4938 71.7439 54.4843 71.7645 54.4578C71.7978 54.4152 73.4304 51.5702 73.4482 51.5239C73.4665 51.4761 73.4314 51.4699 73.1948 51.4789L72.9201 51.4894L72.2452 52.664C71.874 53.31 71.559 53.8578 71.5451 53.8812C71.5304 53.9062 71.2285 53.4182 70.8131 52.6977L70.1063 51.4716H69.8216H69.537L69.5887 51.5517ZM75.4766 51.4963C75.463 51.51 75.4533 52.1736 75.4551 52.971C75.4577 54.1167 75.4681 54.429 75.5048 54.4595C75.5368 54.486 75.9664 54.4951 76.8819 54.4886L78.2125 54.4793L78.2231 54.2391L78.2336 53.9988H77.0929H75.9523V53.6073V53.2157H76.8575C77.7167 53.2157 77.7639 53.2123 77.7843 53.1479C77.8148 53.0519 77.7976 52.8149 77.7562 52.7607C77.7296 52.7258 77.5248 52.7157 76.8813 52.7175C76.4193 52.7187 76.0212 52.7192 75.9968 52.7186C75.9639 52.7177 75.9523 52.6147 75.9523 52.3258V51.9343H77.0913H78.2303V51.7029V51.4716H76.8659C76.1154 51.4716 75.4902 51.4827 75.4766 51.4963ZM83.178 52.9659V54.4602L83.2602 54.4808C83.3054 54.4922 83.8941 54.4965 84.5683 54.4904C85.7743 54.4795 85.7963 54.478 85.9251 54.3979C86.1436 54.262 86.2037 54.0867 86.2027 53.5871C86.2021 53.2324 86.1897 53.1359 86.1277 53.0021C86.0629 52.8625 86.0541 52.7804 86.0585 52.3614C86.0642 51.8157 86.0277 51.694 85.8156 51.5524C85.6956 51.4722 85.6853 51.4716 84.4363 51.4716H83.178V52.9659ZM88.2911 51.496C88.2776 51.5094 88.2676 52.1727 88.2688 52.97C88.2705 54.1285 88.2804 54.4275 88.3182 54.4588C88.3511 54.4862 88.7675 54.4952 89.696 54.4886L91.0266 54.4793L91.0371 54.2391L91.0476 53.9988H89.907H88.7663V53.6073V53.2157H89.6716C90.6882 53.2157 90.6282 53.2331 90.6125 52.9432C90.5999 52.7088 90.6187 52.7136 89.7305 52.7175C89.2883 52.7194 88.8905 52.7202 88.8464 52.7192C88.7683 52.7174 88.7663 52.7076 88.7663 52.3258V51.9343H89.9054H91.0444V51.7029V51.4716H89.6799C88.9295 51.4716 88.3045 51.4826 88.2911 51.496ZM92.9665 51.7029V51.9343H93.6068H94.247L94.2564 53.2068L94.2657 54.4793H94.4793H94.6929L94.7022 53.2068L94.7115 51.9343H95.3518H95.9921V51.7029V51.4716H94.4793H92.9665V51.7029ZM97.7718 51.7029V51.9343H98.412H99.0523L99.0616 53.2068L99.071 54.4793L99.21 54.4907C99.2864 54.4969 99.3865 54.4926 99.4325 54.4811L99.5159 54.4602V53.1972V51.9343H100.157H100.797V51.7029V51.4716H99.2846H97.7718V51.7029ZM102.755 52.9627C102.755 54.2896 102.761 54.4563 102.811 54.4755C102.898 54.5086 105.436 54.5001 105.489 54.4666C105.521 54.4464 105.532 54.371 105.524 54.2268L105.514 54.0166L104.366 54.0072L103.218 53.9978V53.6074V53.2169L104.134 53.2074L105.051 53.1979L105.062 52.9877C105.069 52.8439 105.058 52.7678 105.026 52.747C105.001 52.7303 104.611 52.7176 104.161 52.7188C103.711 52.72 103.314 52.7202 103.28 52.7192C103.225 52.7176 103.218 52.6743 103.218 52.3258V51.9343H104.353C105.63 51.9343 105.531 51.9583 105.531 51.6466V51.4716H104.143H102.755V52.9627ZM107.577 51.5149C107.567 51.54 107.564 52.2173 107.569 53.02L107.578 54.4793L107.735 54.4906C108.068 54.5143 108.059 54.5302 108.059 53.9447V53.4293H108.606H109.154L109.595 53.9543L110.035 54.4793L110.229 54.4903C110.448 54.5028 110.586 54.4772 110.586 54.4241C110.586 54.4043 110.408 54.1792 110.191 53.9238C109.974 53.6684 109.804 53.4519 109.813 53.4427C109.822 53.4334 109.912 53.4203 110.011 53.4135C110.218 53.3994 110.384 53.3149 110.493 53.1686C110.563 53.0752 110.568 53.0231 110.568 52.4305V51.793L110.416 51.6412L110.265 51.4894L108.93 51.4792C107.867 51.4712 107.591 51.4784 107.577 51.5149ZM2.17339 51.9579C2.14204 51.9705 2.1289 52.079 2.1289 52.325C2.1289 52.6106 2.13915 52.6781 2.18521 52.6958C2.21618 52.7077 2.62943 52.7174 3.10355 52.7174C3.72657 52.7174 3.97744 52.7055 4.0083 52.6747C4.03532 52.6477 4.05101 52.5118 4.05101 52.3047C4.05101 52.0392 4.04041 51.9735 3.9947 51.9559C3.92761 51.9301 2.23757 51.932 2.17339 51.9579ZM19.8002 51.9787C19.7906 52.0038 19.787 52.4646 19.7922 53.0026L19.8017 53.981H20.7983H21.795V52.9665V51.9521L20.8063 51.9426C20.0289 51.9352 19.8139 51.9429 19.8002 51.9787ZM27.8016 51.9576C27.7412 51.9823 27.7396 52.6145 27.7998 52.6747C27.8495 52.7244 29.559 52.7361 29.636 52.6872C29.6696 52.6659 29.6791 52.5635 29.6716 52.3051L29.6614 51.9521L28.7537 51.9457C28.2545 51.9422 27.826 51.9475 27.8016 51.9576ZM52.1953 51.9902C52.1193 52.0663 52.1133 52.8293 52.1883 52.8916C52.2228 52.9202 52.5224 52.9294 53.2116 52.9226L54.1861 52.9132L54.1961 52.4532C54.2036 52.1091 54.1947 51.986 54.1605 51.9643C54.1355 51.9484 53.6956 51.9352 53.1831 51.9348C52.383 51.9344 52.2434 51.9422 52.1953 51.9902ZM83.6775 52.0031C83.6171 52.1162 83.631 52.5958 83.6966 52.6615C83.7444 52.7092 83.8788 52.7174 84.6196 52.7174C85.3603 52.7174 85.4947 52.7092 85.5425 52.6615C85.6123 52.5916 85.6229 52.0442 85.5557 51.977C85.5247 51.946 85.2657 51.9343 84.6137 51.9343C83.761 51.9343 83.7125 51.9379 83.6775 52.0031ZM108.102 51.9643C108.068 51.986 108.059 52.1091 108.066 52.4532L108.076 52.9132L109.051 52.9226C109.74 52.9294 110.04 52.9202 110.074 52.8916C110.134 52.8421 110.144 52.1107 110.086 52.0031C110.051 51.9377 110.003 51.9343 109.099 51.9348C108.576 51.9352 108.127 51.9484 108.102 51.9643ZM2.14421 53.2271C2.13428 53.253 2.13079 53.4332 2.13645 53.6276L2.1467 53.981L3.12121 53.9905C3.81043 53.9972 4.10999 53.9881 4.14456 53.9594C4.20386 53.9102 4.21322 53.3549 4.15655 53.249C4.12149 53.1835 4.07219 53.1801 3.14096 53.1801C2.36272 53.1801 2.15855 53.1898 2.14421 53.2271ZM27.7724 53.2271C27.7624 53.253 27.759 53.4332 27.7646 53.6276L27.7749 53.981L28.7494 53.9905C29.4386 53.9972 29.7382 53.9881 29.7727 53.9594C29.8366 53.9064 29.8418 53.2858 29.7788 53.2228C29.714 53.1579 27.7974 53.1621 27.7724 53.2271ZM83.684 53.2223C83.6205 53.2857 83.6252 53.906 83.6895 53.9594C83.7241 53.9881 84.0237 53.9972 84.7129 53.9905L85.6874 53.981V53.5895V53.1979L84.7073 53.1885C83.9749 53.1814 83.7163 53.1899 83.684 53.2223ZM56.7503 54.0789C56.7406 54.1229 56.7373 54.231 56.743 54.3191L56.7534 54.4793L56.9113 54.4871C57.2148 54.5021 57.2295 54.4902 57.2295 54.2295V53.9988H56.9988C56.7885 53.9988 56.7665 54.0059 56.7503 54.0789ZM112.658 54.2391L112.668 54.4793H112.882H113.095L113.106 54.2391L113.116 53.9988H112.882H112.647L112.658 54.2391Z" fill="#E83437"/>
</g>
<defs>
<clipPath id="clip0_832_385">
<rect width="114.894" height="54" fill="white" transform="translate(0.488281 0.5)"/>
</clipPath>
</defs>
</svg>
